<svg xmlns="http://www.w3.org/2000/svg" width="44" height="40" viewBox="0 0 44 40"><g transform="translate(-110 -208)"><rect width="44" height="40" transform="translate(110 208)" fill="#fff" opacity="0"/><g transform="translate(-65 20)"><path d="M192.117,849.662a1.023,1.023,0,0,0-.725-.311H177.985a1.039,1.039,0,0,0-1.035,1.035V878.8a1.038,1.038,0,0,0,1.035,1.035h19.929a1.038,1.038,0,0,0,1.035-1.035v-21.9a1.024,1.024,0,0,0-.311-.725Zm-13.1,28.16v-26.4h11.336v5.487a1.038,1.038,0,0,0,1.035,1.035h5.487V877.77H179.021Z" transform="translate(9.05 -656.351)" fill="#38373c"/><rect width="14" height="15" rx="2" transform="translate(190 204.489)" fill="#fff"/><path d="M2,1.5a.5.5,0,0,0-.5.5V13a.5.5,0,0,0,.5.5H12a.5.5,0,0,0,.5-.5V2a.5.5,0,0,0-.5-.5H2M2,0H12a2,2,0,0,1,2,2V13a2,2,0,0,1-2,2H2a2,2,0,0,1-2-2V2A2,2,0,0,1,2,0Z" transform="translate(190 204.489)" fill="#38373c"/><rect width="7" height="1.5" rx="0.75" transform="translate(190 197.489)" fill="#38373c"/><rect width="7" height="1.5" rx="0.75" transform="translate(190 200.489)" fill="#38373c"/><rect width="12" height="1.5" rx="0.75" transform="translate(191 207.489)" fill="#38373c"/><rect width="14" height="1.5" rx="0.75" transform="translate(194.75 205.239) rotate(90)" fill="#38373c"/></g></g></svg>