<svg xmlns="http://www.w3.org/2000/svg" width="24" height="30.9" viewBox="0 0 24 30.9"><g fill="#fff"><path d="M20.357 3.514A11.724 11.724 0 0012.043 0 12.221 12.221 0 000 12.086c0 3.386 1.8 7.843 4.929 12.171 2.957 4.072 5.743 6.214 6.771 6.6a1.067 1.067 0 00.6 0c1.029-.386 3.814-2.486 6.772-6.6C22.2 19.929 24 15.514 24 12.086a12.3 12.3 0 00-3.643-8.572zm-2.7 19.757A22.656 22.656 0 0112 29.1a21.952 21.952 0 01-5.657-5.829c-2.957-4.071-4.629-8.1-4.629-11.186a10.394 10.394 0 013.129-7.371 10.032 10.032 0 017.114-3h.129a10.009 10.009 0 017.071 3 10.574 10.574 0 013.129 7.371c-.043 3.086-1.715 7.115-4.629 11.186z"/><path d="M12 5.957a6.6 6.6 0 106.6 6.6 6.6 6.6 0 00-6.6-6.6zm0 11.486a4.886 4.886 0 114.886-4.886A4.939 4.939 0 0112 17.443z"/></g></svg>