<svg xmlns="http://www.w3.org/2000/svg" width="33.149" height="33.149" viewBox="0 0 33.149 33.149"><g xmlns="http://www.w3.org/2000/svg"><path fill="#e30613" d="M0 0h33.149v33.149H0z"/><path d="M8.507 21.005H4.644v-9.046h4.215c1.378 0 2.5.558 2.5 2.219a1.95 1.95 0 01-1.405 2 2.139 2.139 0 011.746 2.038c-.001 1.648-1.024 2.789-3.193 2.789zm-1.413-7.5v1.95h1.111c.673 0 .908-.483.908-1.064s-.282-.886-.939-.886zm1.043 3.713H7.094v2.246h1.075c.711 0 1.012-.472 1.012-1.172 0-.57-.174-1.075-1.043-1.075zM28.894 14.033h-2.237v6.974h-2.5v-6.974H21.92v-1.894h6.974v1.89zM18.042 12.107v6.059c0 .817-.252 1.309-1.122 1.309s-1.122-.492-1.122-1.309v-6.059h-2.485v6.122c0 1.188.111 1.4.47 1.89.58.728 1.619 1 3.138 1s2.558-.276 3.138-1c.359-.485.47-.7.47-1.89v-6.122z" fill="#fff"/></g></svg>