<svg xmlns="http://www.w3.org/2000/svg" width="150" height="71.607" viewBox="0 0 150 71.607"><path fill="#e30613" d="M0 .001h71.607v71.607H0z"/><path d="M18.377 45.381h-8.342V25.835h9.106c2.976 0 5.393 1.206 5.393 4.794a4.212 4.212 0 01-3.035 4.318 4.621 4.621 0 013.772 4.4c.002 3.563-2.209 6.034-6.894 6.034zm-3.051-16.2v4.212h2.4c1.454 0 1.961-1.044 1.961-2.3s-.609-1.915-2.029-1.915zm2.254 8.02h-2.254v4.851h2.322c1.537 0 2.186-1.019 2.186-2.531.001-1.24-.376-2.327-2.255-2.327zM62.415 30.313h-4.833v15.064h-5.4V30.313h-4.833v-4.086h15.065v4.082zM38.973 26.154v13.088c0 1.764-.544 2.828-2.423 2.828s-2.423-1.063-2.423-2.828V26.154h-5.37V39.38c0 2.565.239 3.034 1.014 4.082 1.253 1.572 3.5 2.168 6.778 2.168s5.526-.6 6.778-2.168c.776-1.048 1.014-1.517 1.014-4.082V26.154z" fill="#fff"/><g fill="#e30613"><path d="M148.227 69.835H80.166V1.774h68.06zM78.393.001v71.607H150V.001z"/><path d="M123.543 31.591q-1.051 0-1.127-.939l-1.428.313a1.961 1.961 0 00.614 1.214 2.307 2.307 0 00.776.488 3.289 3.289 0 001.177.2 2.492 2.492 0 001.8-.638 1.849 1.849 0 00.589-1.39q0-1.515-1.828-1.891l-.877-.188q-.564-.1-.563-.551 0-.613.789-.613a1.016 1.016 0 01.751.275 1 1 0 01.263.551l1.39-.313a1.855 1.855 0 00-.576-1.139 2.287 2.287 0 00-.738-.451 2.989 2.989 0 00-1.1-.188 2.4 2.4 0 00-1.653.589 1.854 1.854 0 00-.651 1.427q0 1.453 1.728 1.84l.814.188q.663.138.664.6 0 .616-.814.616zM91.065 45.077a3.29 3.29 0 001.177.2 2.49 2.49 0 001.8-.639 1.844 1.844 0 00.589-1.389q0-1.515-1.828-1.89l-.877-.188c-.376-.067-.563-.25-.563-.551q0-.614.789-.614a1.013 1.013 0 01.751.276 1 1 0 01.263.551l1.39-.313a1.856 1.856 0 00-.576-1.14 2.314 2.314 0 00-.738-.451 3.016 3.016 0 00-1.1-.188 2.4 2.4 0 00-1.653.589 1.856 1.856 0 00-.651 1.427q0 1.453 1.728 1.841l.814.187q.664.138.664.6 0 .614-.814.614-1.051 0-1.127-.938l-1.428.312a1.963 1.963 0 00.614 1.215 2.316 2.316 0 00.776.489zm15.112-25.893q-1.052 0-1.127-.939l-1.427.313a1.96 1.96 0 00.613 1.214 2.314 2.314 0 00.777.488 3.287 3.287 0 001.177.2 2.492 2.492 0 001.8-.638 1.849 1.849 0 00.589-1.39q0-1.515-1.828-1.891l-.877-.188q-.564-.1-.563-.551 0-.613.789-.613a1.016 1.016 0 01.751.275 1 1 0 01.263.551l1.39-.313a1.855 1.855 0 00-.576-1.139 2.288 2.288 0 00-.738-.451 2.989 2.989 0 00-1.1-.188 2.4 2.4 0 00-1.653.589 1.854 1.854 0 00-.651 1.427q0 1.453 1.728 1.84l.814.188q.663.138.664.6-.005.616-.815.616zm-12.558 1.093l2.391-6.16h-1.753l-1.465 4.132-1.528-4.132h-1.827l2.516 6.16h1.666zm2.191 9.252a3.28 3.28 0 00-.8-2.341 2.954 2.954 0 00-2.241-.851 2.847 2.847 0 00-2.1.889 3.187 3.187 0 00-.927 2.354 3.239 3.239 0 00.951 2.429 3.1 3.1 0 002.229.864 2.99 2.99 0 001.853-.576 2.59 2.59 0 00.951-1.377l-1.39-.413a1.351 1.351 0 01-1.4.939 1.566 1.566 0 01-1.077-.4 1.366 1.366 0 01-.476-1h4.404zm-4.395-.626a1.217 1.217 0 01.376-.814 1.359 1.359 0 011-.4 1.406 1.406 0 011.039.375 1.258 1.258 0 01.338.839h-2.755zm16.327 3.774l2.391-6.16h-1.753l-1.465 4.132-1.528-4.129h-1.828l2.517 6.16zm3.406 0h1.666v-6.16h-1.666zM99.604 20.461a3.1 3.1 0 002.3-.926 3.174 3.174 0 00.926-2.341 3.217 3.217 0 00-.926-2.354 3.361 3.361 0 00-4.608 0 3.217 3.217 0 00-.926 2.354 3.174 3.174 0 00.926 2.341 3.1 3.1 0 002.308.926zm-1.089-4.584a1.572 1.572 0 012.178 0 2.053 2.053 0 010 2.629 1.477 1.477 0 01-1.089.438 1.458 1.458 0 01-1.089-.451 1.757 1.757 0 01-.476-1.3 1.8 1.8 0 01.476-1.316zm4.231 16.8v-3.879a2.627 2.627 0 00-.538-1.728 2.089 2.089 0 00-1.69-.714 2.258 2.258 0 00-1 .225 1.766 1.766 0 00-.777.7v-.764h-1.615v6.16h1.661v-3.54q0-1.277 1.152-1.277t1.139 1.227v3.59h1.665zm9.228-7.162a.9.9 0 001.027-1.014.913.913 0 00-1.027-1.039.99.99 0 00-.726.3 1.031 1.031 0 00-.3.739.975.975 0 00.3.714.989.989 0 00.726.303zm-3.18 25.629a2.85 2.85 0 00-2.1.889 3.189 3.189 0 00-.927 2.354 3.237 3.237 0 00.952 2.429 3.093 3.093 0 002.228.864 2.987 2.987 0 001.854-.576 2.592 2.592 0 00.951-1.378l-1.39-.413a1.35 1.35 0 01-1.4.939 1.562 1.562 0 01-1.077-.4 1.366 1.366 0 01-.476-1h4.408l.025-.514a3.277 3.277 0 00-.8-2.341 2.953 2.953 0 00-2.248-.85zm-1.353 2.567a1.219 1.219 0 01.376-.814 1.359 1.359 0 011-.4 1.4 1.4 0 011.04.375 1.258 1.258 0 01.338.839zm11.281-23.212a1.35 1.35 0 01-1.4.939 1.564 1.564 0 01-1.076-.4 1.364 1.364 0 01-.476-1h4.407l.025-.513a3.28 3.28 0 00-.8-2.341 2.954 2.954 0 00-2.241-.851 2.847 2.847 0 00-2.1.889 3.187 3.187 0 00-.927 2.354 3.24 3.24 0 00.951 2.429 3.1 3.1 0 002.229.864 2.988 2.988 0 001.853-.576 2.593 2.593 0 00.952-1.377zm-2.542-2.417a1.359 1.359 0 011-.4 1.4 1.4 0 011.039.375 1.255 1.255 0 01.338.839h-2.755a1.215 1.215 0 01.379-.811zm.363 23.087a2.251 2.251 0 00-1 .226 1.762 1.762 0 00-.776.7v-.764h-1.615v6.16h1.666v-3.539q0-1.277 1.152-1.277t1.139 1.227v3.594h1.665v-3.883a2.623 2.623 0 00-.538-1.727 2.085 2.085 0 00-1.692-.715zm9.791-2.742h-1.641v3.52a1.259 1.259 0 00-.538-.5 2.5 2.5 0 00-1.2-.263 2.747 2.747 0 00-2.128.926 3.319 3.319 0 00-.826 2.291 3.264 3.264 0 00.851 2.316 2.774 2.774 0 002.154.927 1.813 1.813 0 001.728-.864 3.45 3.45 0 00.025.412 2.013 2.013 0 00.038.3h1.59a11 11 0 01-.05-1.114zm-2.047 7.265a1.376 1.376 0 01-1.077.463q-1.528 0-1.528-1.753a1.78 1.78 0 01.451-1.277 1.4 1.4 0 011.076-.451q1.515 0 1.515 1.716a1.878 1.878 0 01-.437 1.302zm14.336-1.353a3.28 3.28 0 00-.8-2.341 2.955 2.955 0 00-2.241-.852 2.849 2.849 0 00-2.1.889 3.189 3.189 0 00-.927 2.354 3.239 3.239 0 00.951 2.429 3.093 3.093 0 002.229.864 2.985 2.985 0 001.853-.576 2.6 2.6 0 00.952-1.378l-1.39-.413a1.35 1.35 0 01-1.4.939 1.562 1.562 0 01-1.076-.4 1.364 1.364 0 01-.476-1h4.407zm-4.4-.625a1.219 1.219 0 01.376-.814 1.361 1.361 0 011-.4 1.4 1.4 0 011.039.375 1.256 1.256 0 01.338.839zm-38.951-.225a2.245 2.245 0 00-.6-1.641 3.269 3.269 0 00-3.982-.05 2.1 2.1 0 00-.738 1.378l1.477.313a1.022 1.022 0 011.177-1q1.039 0 1.039.8 0 .375-.463.438l-1.515.225a2.4 2.4 0 00-1.3.576 1.681 1.681 0 00-.538 1.29 1.724 1.724 0 00.563 1.29 2.182 2.182 0 001.553.563 2.329 2.329 0 001.139-.275 1.985 1.985 0 00.676-.639 3.415 3.415 0 00.063.738h1.527a5.662 5.662 0 01-.075-.977zm-1.628 1.514a1.422 1.422 0 01-.413 1.127 1.39 1.39 0 01-.939.3q-.8 0-.8-.714 0-.664.764-.776l1.39-.213zm36.936-3.543a1.562 1.562 0 00-.827.789v-.914h-1.615v6.16h1.666v-2.818a1.771 1.771 0 01.476-1.364 1.567 1.567 0 011.115-.376 2.571 2.571 0 01.5.051v-1.679q-.25-.025-.388-.025a2.344 2.344 0 00-.927.176zm-16.164-8.213q0-1.515-1.828-1.89l-.877-.188c-.376-.067-.563-.25-.563-.551q0-.614.789-.614a1.014 1.014 0 01.75.273 1 1 0 01.263.551l1.39-.313a1.856 1.856 0 00-.576-1.14 2.32 2.32 0 00-.738-.451 3.016 3.016 0 00-1.1-.188 2.4 2.4 0 00-1.653.589 1.855 1.855 0 00-.651 1.427q0 1.453 1.728 1.841l.814.187q.664.138.664.6 0 .614-.814.614-1.051 0-1.127-.938l-1.428.312a1.963 1.963 0 00.614 1.215 2.321 2.321 0 00.776.488 3.289 3.289 0 001.177.2 2.491 2.491 0 001.8-.639 1.846 1.846 0 00.59-1.385zm-15.451 6.247h-1.5v.864a.852.852 0 01-.952.977H96.2v1.477h1.114v2.865a1.7 1.7 0 001.953 1.9 3.4 3.4 0 00.6-.05l.338-.1v-1.372a2 2 0 01-.513.05.636.636 0 01-.726-.713v-2.58h1.239v-1.477h-1.239zm-.163-4.506a1.99 1.99 0 00.676-.639 3.468 3.468 0 00.063.739h1.528a5.667 5.667 0 01-.075-.977v-3.034a2.242 2.242 0 00-.6-1.64 3.264 3.264 0 00-3.981-.05 2.1 2.1 0 00-.739 1.377l1.477.313a1.022 1.022 0 011.177-1q1.039 0 1.039.8c0 .251-.155.4-.464.439l-1.515.224a2.412 2.412 0 00-1.3.576 1.684 1.684 0 00-.539 1.291 1.72 1.72 0 00.564 1.289 2.176 2.176 0 001.552.564 2.318 2.318 0 001.137-.272zm-1.59-1.677q0-.664.764-.777l1.39-.213v.276a1.422 1.422 0 01-.413 1.127 1.394 1.394 0 01-.939.3q-.802 0-.802-.714zm6.423 6.184h-1.5v.864a.853.853 0 01-.952.977h-.313v1.477h1.117v2.864a1.7 1.7 0 001.953 1.9 3.4 3.4 0 00.6-.05l.338-.1v-1.372a2 2 0 01-.513.05.636.636 0 01-.727-.713v-2.58h1.24v-1.477h-1.24zm2.993-8v3.594h1.665v-3.883a2.624 2.624 0 00-.538-1.727 2.086 2.086 0 00-1.69-.714 2.262 2.262 0 00-1 .225 1.77 1.77 0 00-.776.7v-.763h-1.615v6.161h1.666v-3.544q0-1.277 1.152-1.277t1.136 1.227z"/></g></svg>