<svg xmlns="http://www.w3.org/2000/svg" width="44" height="40" viewBox="0 0 44 40"><g transform="translate(-110 -323)"><rect width="44" height="40" transform="translate(110 323)" fill="#fff" opacity="0"/><g transform="translate(-68 20)"><path d="M-309.669,1016.069a.87.87,0,0,0-.64-.256c-1.109.043-2.261.128-3.37.256v-4.18a.868.868,0,0,0-.256-.64.705.705,0,0,0-.64-.213,19.438,19.438,0,0,0-11.986,5.332,19.449,19.449,0,0,0-12.029-5.246,1.156,1.156,0,0,0-.64.213.8.8,0,0,0-.256.64v4.18c-1.109-.128-2.218-.213-3.37-.256a.87.87,0,0,0-.64.256.843.843,0,0,0-.256.6v19.664a.855.855,0,0,0,.853.853,64.831,64.831,0,0,1,16.081,2.559,1.908,1.908,0,0,1,.213.042c.043,0,.171,0,.213-.042a66.894,66.894,0,0,1,16.081-2.559.855.855,0,0,0,.853-.853v-19.749A.662.662,0,0,0-309.669,1016.069Zm-16.038,20.858V1017.9a18.038,18.038,0,0,1,10.365-5.033v19.152A19.6,19.6,0,0,0-325.707,1036.927Zm-12.114-24.057a17.664,17.664,0,0,1,10.365,5.033v19.024a19.265,19.265,0,0,0-10.365-4.905Zm-4.223,4.692a23.929,23.929,0,0,1,2.517.256v14.972a.847.847,0,0,0,.81.853,16.777,16.777,0,0,1,8.957,3.583,64.773,64.773,0,0,0-12.284-1.749Zm30.924,17.958a61.491,61.491,0,0,0-12.284,1.749,16.78,16.78,0,0,1,8.957-3.583.846.846,0,0,0,.81-.853v-15.014a25.137,25.137,0,0,1,2.517-.256Z" transform="translate(526.75 -702.025)" fill="#38373c"/></g></g></svg>