<svg xmlns="http://www.w3.org/2000/svg" width="44" height="40" viewBox="0 0 44 40"><g transform="translate(-110 -262)"><rect width="44" height="40" transform="translate(110 262)" fill="#fff" opacity="0"/><g transform="translate(-67 16)"><path d="M353.637-18.852a2.372,2.372,0,0,0-2.986-1.493L343.4-18.724v-.128a2.385,2.385,0,0,0-2.381-2.389h-4.4a.538.538,0,0,1-.256-.043l-3.327-1.578a4.948,4.948,0,0,0-2.218-.469h-4.095V-24.7a.856.856,0,0,0-.853-.853h-5.758a.853.853,0,0,0-.853.853.853.853,0,0,0,.853.853h4.948V-14.5a.583.583,0,0,1-.569.6H318.7a.853.853,0,0,0-.853.853.853.853,0,0,0,.853.853h5.758a2.3,2.3,0,0,0,2.261-1.919,5.223,5.223,0,0,1,1.621.469l3.284,1.664a9.269,9.269,0,0,0,4.18.981,9.753,9.753,0,0,0,3.327-.6l13.01-4.095A2.6,2.6,0,0,0,353.637-18.852Zm-2.047,1.408-13.052,4.137a7.389,7.389,0,0,1-2.73.512,7.188,7.188,0,0,1-3.412-.81l-3.284-1.664a6.794,6.794,0,0,0-2.389-.64v-5.758h4.095a3.643,3.643,0,0,1,1.493.341l3.284,1.578a2.526,2.526,0,0,0,.981.213h4.436a.674.674,0,0,1,.682.665v.017a.7.7,0,0,1-.427.64h0a.538.538,0,0,1-.256.043H334.4a.853.853,0,0,0-.853.853.853.853,0,0,0,.853.853h6.611a2.479,2.479,0,0,0,.81-.128l9.3-2.09a.713.713,0,0,1,.512.043.606.606,0,0,1,.341.384.588.588,0,0,1-.293.778A.578.578,0,0,1,351.59-17.445Z" transform="translate(-136.85 293.402)" fill="#38373c"/><path d="M378.45-34.626a4.223,4.223,0,0,0,4.223,4.223,4.223,4.223,0,0,0,4.223-4.223,4.223,4.223,0,0,0-4.223-4.223A4.233,4.233,0,0,0,378.45-34.626Zm6.739,0a2.521,2.521,0,0,1-2.517,2.517,2.549,2.549,0,0,1-2.517-2.517,2.521,2.521,0,0,1,2.517-2.517A2.55,2.55,0,0,1,385.189-34.626Z" transform="translate(-171.602 301.029)" fill="#38373c"/><path d="M349.938-53.114a5.378,5.378,0,0,0,5.119-3.754,6.9,6.9,0,0,0,2.3.427,6.654,6.654,0,0,0,6.652-6.656,6.654,6.654,0,0,0-6.656-6.652,6.654,6.654,0,0,0-6.608,5.886,5.251,5.251,0,0,0-.853-.085,5.417,5.417,0,0,0-5.4,5.438A5.417,5.417,0,0,0,349.938-53.114ZM357.4-68.043a4.948,4.948,0,0,1,4.948,4.948,4.948,4.948,0,0,1-4.948,4.948,4.948,4.948,0,0,1-4.948-4.948h0A4.951,4.951,0,0,1,357.4-68.043Zm-7.465,5.8a5.252,5.252,0,0,1,.853.085,6.631,6.631,0,0,0,2.73,4.479,3.7,3.7,0,0,1-4.461,2.729,3.7,3.7,0,0,1-2.729-4.461A3.7,3.7,0,0,1,349.938-62.242Z" transform="translate(-152.133 318.749)" fill="#38373c"/><path d="M369.658-55.333a3.048,3.048,0,0,0,2.047-.725l-.6-.9a2,2,0,0,1-1.45.512,2.129,2.129,0,0,1-1.962-1.152H369.4l.427-.938H367.44V-59.3h2.687l.427-.9h-2.9a2.1,2.1,0,0,1,1.962-1.194,2.208,2.208,0,0,1,1.322.384l.469-.981a2.958,2.958,0,0,0-1.791-.469,3.412,3.412,0,0,0-3.284,2.3h-.981v.9h.81v.768h-.81v.938h.981A3.548,3.548,0,0,0,369.658-55.333Z" transform="translate(-164.089 314.57)" fill="#38373c"/></g></g></svg>