<svg xmlns="http://www.w3.org/2000/svg" width="24.374" height="30" viewBox="0 0 24.374 30"><path d="M12.595 0C4.371 0 0 5.27 0 11.015c0 2.664 1.489 5.988 3.873 7.041.68.306.59-.067 1.175-2.305a.531.531 0 00-.128-.521c-3.407-3.941-.665-12.044 7.189-12.044 11.366 0 9.243 15.728 1.978 15.728a2.682 2.682 0 01-2.826-3.289c.535-2.166 1.583-4.5 1.583-6.056 0-3.935-5.863-3.351-5.863 1.863a6.307 6.307 0 00.57 2.7s-1.886 7.62-2.236 9.044c-.593 2.41.08 6.311.139 6.648a.2.2 0 00.36.091 23.572 23.572 0 003.105-5.848c.233-.856 1.186-4.331 1.186-4.331a5.183 5.183 0 004.373 2.085c5.745 0 9.9-5.05 9.9-11.316C24.35 4.5 19.213 0 12.595 0z" fill="#fff"/></svg>