<svg xmlns="http://www.w3.org/2000/svg" viewBox="0 0 29.994 30"><g fill="#fff"><path d="M29.917 8.82a10.962 10.962 0 00-.7-3.639A7.685 7.685 0 0024.83.791a10.99 10.99 0 00-3.639-.7C19.585.018 19.075 0 15.002 0S10.42.018 8.82.088a10.965 10.965 0 00-3.639.7A7.32 7.32 0 002.52 2.52 7.386 7.386 0 00.791 5.175a10.991 10.991 0 00-.7 3.639C.017 10.42 0 10.93 0 15s.018 4.583.088 6.183a10.961 10.961 0 00.7 3.639 7.684 7.684 0 004.389 4.389 10.992 10.992 0 003.639.7c1.6.071 2.11.088 6.183.088s4.583-.017 6.183-.088a10.959 10.959 0 003.639-.7 7.673 7.673 0 004.39-4.389 11 11 0 00.7-3.639c.07-1.6.088-2.11.088-6.183s-.006-4.583-.076-6.183zm-2.7 12.248a8.223 8.223 0 01-.516 2.784 4.976 4.976 0 01-2.85 2.848 8.252 8.252 0 01-2.784.516c-1.582.071-2.057.088-6.06.088s-4.483-.017-6.06-.088a8.218 8.218 0 01-2.782-.516 4.616 4.616 0 01-1.723-1.119 4.664 4.664 0 01-1.119-1.723 8.253 8.253 0 01-.516-2.784c-.071-1.582-.088-2.057-.088-6.06s.017-4.483.088-6.06a8.218 8.218 0 01.516-2.784 4.56 4.56 0 011.128-1.722 4.657 4.657 0 011.72-1.119 8.258 8.258 0 012.78-.516c1.582-.07 2.057-.088 6.06-.088s4.483.018 6.06.088a8.223 8.223 0 012.784.516 4.613 4.613 0 011.726 1.119A4.663 4.663 0 0126.7 6.171a8.256 8.256 0 01.516 2.784c.07 1.582.088 2.057.088 6.06s-.018 4.472-.088 6.054zm0 0"/><path d="M15.003 7.525a7.478 7.478 0 107.478 7.478 7.48 7.48 0 00-7.478-7.478zm0 12.329a4.851 4.851 0 114.851-4.851 4.852 4.852 0 01-4.851 4.851zm0 0M24.836 7.025a1.856 1.856 0 11-1.856-1.856 1.856 1.856 0 011.856 1.856zm0 0"/></g></svg>